<svg width="93" height="62" viewBox="0 0 93 62" fill="none" xmlns="http://www.w3.org/2000/svg">
<path d="M93 38.75V54.25C93 58.5303 89.5303 62 85.25 62H7.75C3.46974 62 0 58.5303 0 54.25V38.75C0 34.4697 3.46974 31 7.75 31H85.25C89.5303 31 93 34.4697 93 38.75ZM85.25 25.8333C86.9561 25.8318 88.6453 26.1702 90.2192 26.8287L74.6341 3.45101C73.9263 2.38945 72.9675 1.51904 71.8425 0.917029C70.7176 0.315016 69.4615 2.01799e-05 68.1856 0H24.8144C23.5385 4.08639e-06 22.2824 0.314993 21.1575 0.917009C20.0326 1.51903 19.0738 2.38945 18.366 3.45101L2.7808 26.8287C4.35466 26.1702 6.04393 25.8318 7.75 25.8333H85.25ZM77.5 41.3333C74.6465 41.3333 72.3333 43.6465 72.3333 46.5C72.3333 49.3535 74.6465 51.6667 77.5 51.6667C80.3535 51.6667 82.6667 49.3535 82.6667 46.5C82.6667 43.6465 80.3535 41.3333 77.5 41.3333ZM62 41.3333C59.1465 41.3333 56.8333 43.6465 56.8333 46.5C56.8333 49.3535 59.1465 51.6667 62 51.6667C64.8535 51.6667 67.1667 49.3535 67.1667 46.5C67.1667 43.6465 64.8535 41.3333 62 41.3333Z" fill="white"/>
</svg>
