<svg width="137" height="169" viewBox="0 0 137 169" fill="none" xmlns="http://www.w3.org/2000/svg">
<path d="M75.2537 14.6234C86.2462 0.0709455 101.528 0 101.528 0C101.528 0 103.802 13.6818 92.8811 26.8617C81.2208 40.935 67.9672 38.6321 67.9672 38.6321C67.9672 38.6321 65.4785 27.564 75.2537 14.6234ZM69.3653 48.2162C75.0204 48.2162 85.516 40.4083 99.1774 40.4083C122.693 40.4083 131.944 57.2153 131.944 57.2153C131.944 57.2153 113.851 66.507 113.851 89.0529C113.851 114.487 136.39 123.252 136.39 123.252C136.39 123.252 120.634 167.795 99.3525 167.795C89.5778 167.795 81.9785 161.179 71.6794 161.179C61.1839 161.179 50.7686 168.042 43.985 168.042C24.5514 168.042 0 125.789 0 91.8234C0 58.4064 20.7811 40.8765 40.273 40.8765C52.9445 40.8765 62.7777 48.2162 69.3653 48.2162Z" fill="white"/>
</svg>
