<svg viewBox="0 0 100 125" xmlns="http://www.w3.org/2000/svg">
  <path d="M11 965.36c-4.38 0-8 3.62-8 8v52c0 4.38 3.62 8 8 8h56.094c3.124 3.664 7.74 6 12.906 6 9.353 0 17-7.647 17-17 0-5.165-2.336-9.782-6-12.906V987.36c0-4.38-3.62-8-8-8H48.625c-2.788-3.6-5.104-8.527-8.031-11.5-1.287-1.287-3.236-2.5-5.594-2.5zm0 6h24c.412 0 .707.113 1.344.75 2.915 3.696 5.414 7.794 8.156 11.906a3.06 3.06 0 0 0 2.5 1.344h36c1.16 0 2 .84 2 2v18.78a16.8 16.8 0 0 0-5-.78c-9.353 0-17 7.646-17 17 0 1.743.289 3.413.781 5h-52.78c-1.16 0-2-.84-2-2v-52c0-1.16.84-2 2-2zm69 40c1.96 0 3.788.49 5.375 1.375l-15 14.969A10.96 10.96 0 0 1 69 1022.36c0-6.11 4.89-11 11-11m9.625 5.625A11 11 0 0 1 91 1022.36c0 6.11-4.89 11-11 11-1.965 0-3.784-.517-5.375-1.406z" overflow="visible" style="block-progression:tb;text-indent:0;text-transform:none" transform="translate(0 -952.36)" fill="grey" />
</svg>

