<svg width="34" height="34" viewBox="0 0 34 34" fill="none" xmlns="http://www.w3.org/2000/svg">
<path d="M17 34C26.3888 34 34 26.3888 34 17C34 7.61116 26.3888 0 17 0C7.61116 0 0 7.61116 0 17C0 26.3888 7.61116 34 17 34Z" fill="#0A66C2"/>
<path d="M23.0131 23.0164H20.4896V19.0652C20.4896 18.1223 20.4697 16.9104 19.1748 16.9104C17.86 16.9104 17.6574 17.9363 17.6574 18.9955V23.0164H15.134V14.8883H17.5578V15.9973H17.591C17.9297 15.3598 18.7531 14.6857 19.9816 14.6857C22.5383 14.6857 23.0098 16.3691 23.0098 18.5572L23.0131 23.0164ZM12.2885 13.776C11.475 13.776 10.8242 13.1186 10.8242 12.3117C10.8242 11.5049 11.4783 10.8475 12.2885 10.8475C13.0986 10.8475 13.7527 11.5049 13.7527 12.3117C13.7527 13.1186 13.0953 13.776 12.2885 13.776ZM13.5535 23.0164H11.0234V14.8883H13.5535V23.0164ZM24.2748 8.5H9.7584C9.06445 8.5 8.5 9.04785 8.5 9.72852V24.3047C8.5 24.982 9.06113 25.5332 9.7584 25.5332H24.2715C24.9654 25.5332 25.5332 24.9854 25.5332 24.3047V9.72852C25.5332 9.04785 24.9654 8.5 24.2748 8.5Z" fill="white"/>
</svg>
