<svg width="17" height="20" viewBox="0 0 17 20" fill="none" xmlns="http://www.w3.org/2000/svg">
<path d="M14.0517 10.5689C14.0427 8.9302 14.7839 7.69336 16.2842 6.78248C15.4448 5.58137 14.1767 4.92054 12.5023 4.79105C10.9172 4.66603 9.1847 5.71533 8.55066 5.71533C7.8809 5.71533 6.3449 4.8357 5.13933 4.8357C2.6478 4.87589 0 6.82267 0 10.7832C0 11.9531 0.214325 13.1616 0.642974 14.4089C1.21451 16.0476 3.27738 20.0662 5.42956 19.9992C6.55476 19.9724 7.34955 19.1999 8.8141 19.1999C10.234 19.1999 10.9707 19.9992 12.2254 19.9992C14.3955 19.9679 16.2619 16.3155 16.8066 14.6723C13.8954 13.3015 14.0517 10.6537 14.0517 10.5689ZM11.5244 3.2372C12.7434 1.7905 12.6318 0.4733 12.596 0C11.5199 0.0625114 10.2742 0.732276 9.56424 1.55832C8.78285 2.44241 8.32294 3.53636 8.42117 4.76872C9.58656 4.85803 10.6493 4.2597 11.5244 3.2372Z" fill="black"/>
</svg>
