<svg width="38" height="39" viewBox="0 0 38 39" fill="none" xmlns="http://www.w3.org/2000/svg">
<path d="M32.236 0.537598H5.6887C2.54692 0.537598 0 3.08451 0 6.2263V32.7736C0 35.9153 2.54692 38.4622 5.6887 38.4622H32.236C35.3777 38.4622 37.9247 35.9153 37.9247 32.7736V6.2263C37.9247 3.08451 35.3777 0.537598 32.236 0.537598Z" fill="url(#paint0_linear_15_400)"/>
<path d="M32.2359 0.537598H20.3252C18.7549 4.18192 15.9402 10.1373 15.8217 21.5295C15.8197 21.6277 15.8374 21.7252 15.8739 21.8164C15.9103 21.9076 15.9647 21.9905 16.0337 22.0603C16.1028 22.1301 16.1852 22.1852 16.276 22.2226C16.3668 22.2599 16.4642 22.2786 16.5624 22.2776H20.9104C21.0086 22.2776 21.1058 22.2972 21.1963 22.3355C21.2867 22.3737 21.3686 22.4297 21.4369 22.5002C21.5053 22.5706 21.5589 22.6541 21.5944 22.7457C21.6299 22.8372 21.6467 22.935 21.6437 23.0331C21.5357 28.2129 22.0102 33.3885 23.0585 38.4622H32.2359C33.7447 38.4622 35.1916 37.8629 36.2585 36.7961C37.3253 35.7292 37.9246 34.2823 37.9246 32.7736V6.2263C37.9246 4.71756 37.3253 3.27062 36.2585 2.20378C35.1916 1.13694 33.7447 0.537598 32.2359 0.537598Z" fill="url(#paint1_linear_15_400)"/>
<path d="M27.4805 11.5742V14.0927M10.5181 11.5742V14.0927M30.0286 24.996C27.0574 27.8618 23.0904 29.4633 18.9623 29.4633C14.8342 29.4633 10.8671 27.8618 7.896 24.996" stroke="black" stroke-linecap="round"/>
<defs>
<linearGradient id="paint0_linear_15_400" x1="0" y1="3793" x2="0" y2="0.537598" gradientUnits="userSpaceOnUse">
<stop stop-color="#1E73F2"/>
<stop offset="1" stop-color="#19D3FD"/>
</linearGradient>
<linearGradient id="paint1_linear_15_400" x1="15.8215" y1="3793" x2="15.8215" y2="0.537598" gradientUnits="userSpaceOnUse">
<stop stop-color="#DBE9F4"/>
<stop offset="1" stop-color="#F7F6F6"/>
</linearGradient>
</defs>
</svg>
