<svg width="36" height="27" viewBox="0 0 36 27" fill="none" xmlns="http://www.w3.org/2000/svg">
<path d="M34.4513 8.69685C34.7188 8.48422 35.1166 8.68313 35.1166 9.0192V23.0453C35.1166 24.8628 33.642 26.3374 31.8244 26.3374H3.29218C1.47462 26.3374 0 24.8628 0 23.0453V9.02606C0 8.68313 0.390946 8.49108 0.665295 8.7037C2.20165 9.89712 4.23868 11.4129 11.2346 16.4952C12.6818 17.5514 15.1235 19.7737 17.5583 19.7599C20.0069 19.7805 22.4966 17.5103 23.8889 16.4952C30.8848 11.4129 32.915 9.89026 34.4513 8.69685ZM17.5583 17.5583C19.1495 17.5857 21.4403 15.5556 22.5926 14.7188C31.6941 8.11385 32.3868 7.53772 34.4856 5.89163C34.8834 5.58299 35.1166 5.10288 35.1166 4.59534V3.29218C35.1166 1.47462 33.642 0 31.8244 0H3.29218C1.47462 0 0 1.47462 0 3.29218V4.59534C0 5.10288 0.233196 5.57613 0.631001 5.89163C2.72977 7.53086 3.4225 8.11385 12.524 14.7188C13.6763 15.5556 15.9671 17.5857 17.5583 17.5583Z" fill="black"/>
</svg>
