<svg width="22" height="22" viewBox="0 0 22 22" fill="none" xmlns="http://www.w3.org/2000/svg">
<g id="&#240;&#159;&#166;&#134; icon &#34;Power&#34;">
<path id="Vector" d="M15.4688 3.94611L14.7813 5.13548C16.223 5.96786 17.3498 7.25271 17.9868 8.79075C18.6239 10.3288 18.7357 12.0341 18.3048 13.6421C17.8739 15.2502 16.9245 16.6711 15.6038 17.6845C14.283 18.698 12.6648 19.2473 11 19.2473C9.33524 19.2473 7.71699 18.698 6.39625 17.6845C5.0755 16.6711 4.12606 15.2502 3.69519 13.6421C3.26432 12.0341 3.37609 10.3288 4.01316 8.79075C4.65024 7.25271 5.77703 5.96786 7.21875 5.13548L6.53125 3.94611C4.82739 4.92983 3.49574 6.44829 2.74283 8.26598C1.98992 10.0837 1.85783 12.099 2.36704 13.9994C2.87625 15.8998 3.99832 17.5791 5.5592 18.7768C7.12008 19.9745 9.03256 20.6237 11 20.6237C12.9675 20.6237 14.8799 19.9745 16.4408 18.7768C18.0017 17.5791 19.1238 15.8998 19.633 13.9994C20.1422 12.099 20.0101 10.0837 19.2572 8.26598C18.5043 6.44829 17.1726 4.92983 15.4688 3.94611Z" fill="black"/>
<path id="Vector_2" d="M10.3125 1.375H11.6875V11H10.3125V1.375Z" fill="black"/>
</g>
</svg>
